<svg width="64" height="66" viewBox="0 0 64 66" fill="none" xmlns="http://www.w3.org/2000/svg">
<path fill-rule="evenodd" clip-rule="evenodd" d="M31.7533 66.0004C21.9523 65.9931 14.0617 63.6647 8.54333 59.4847C2.96267 55.2534 0 49.2474 0 42.4531C0 35.9044 2.95533 31.1854 6.29933 27.9954C8.51698 25.9223 11.0585 24.2255 13.8233 22.9721C13.3687 21.5861 12.7967 19.7784 12.2907 17.9047C11.6123 15.4041 10.945 12.4671 10.945 10.3147C10.945 7.77007 11.506 5.21074 13.0167 3.22341C14.619 1.12607 17.0207 0.000407735 19.9137 0.000407735C22.0317 -0.0208745 24.073 0.791728 25.597 2.26274C27.038 3.63407 27.995 5.45274 28.655 7.34841C29.8137 10.6777 30.2683 14.8651 30.393 19.0414H33.165C33.2897 14.8614 33.7443 10.6814 34.903 7.34474C35.563 5.45274 36.52 3.63407 37.9573 2.26274C39.4607 0.832742 41.382 0.000407735 43.6407 0.000407735C46.5373 0.000407735 48.9427 1.12607 50.5377 3.22707C52.052 5.21074 52.613 7.77007 52.613 10.3147C52.613 12.4671 51.9457 15.4041 51.2673 17.9047C50.754 19.7747 50.1893 21.5861 49.7347 22.9721C52.4995 24.2255 55.041 25.9223 57.2587 27.9954C60.6027 31.1854 63.558 35.9044 63.558 42.4531C63.558 49.2474 60.5953 55.2497 55.0147 59.4847C49.4963 63.6647 41.602 65.9931 31.8047 66.0004H31.7533Z" fill="#633001"/>
<path d="M19.9137 2.42041C15.675 2.42041 13.7243 5.58474 13.7243 9.95908C13.7243 13.4351 15.994 20.3944 16.9217 23.1041C17.0205 23.4004 17.001 23.7236 16.867 24.0058C16.7331 24.2881 16.4951 24.5076 16.203 24.6184C12.8077 25.9567 2.78299 30.8627 2.78299 42.0937C2.78299 53.9261 12.969 62.8471 31.757 62.8617H31.801C50.589 62.8471 60.775 53.9261 60.775 42.0937C60.775 30.8627 50.7503 25.9604 47.355 24.6184C47.0622 24.5083 46.8234 24.2891 46.6887 24.0068C46.5541 23.7244 46.534 23.4009 46.6327 23.1041C47.564 20.3944 49.8337 13.4351 49.8337 9.95908C49.8337 5.58474 47.8793 2.42408 43.6407 2.42408C37.5393 2.42408 36.0213 11.0664 35.9113 20.3394C35.9075 20.6364 35.7876 20.9202 35.5772 21.1298C35.3668 21.3395 35.0827 21.4586 34.7857 21.4614H28.7723C28.4753 21.4586 28.1912 21.3395 27.9808 21.1298C27.7704 20.9202 27.6505 20.6364 27.6467 20.3394C27.5367 11.0627 26.015 2.42041 19.9137 2.42041Z" fill="#D1884F"/>
<path d="M31.801 59.0704C17.996 59.0704 2.80499 51.6821 2.78299 42.1157V42.1597C2.78299 54.0031 12.9873 62.9277 31.801 62.9277C50.6147 62.9277 60.819 54.0031 60.819 42.1634V42.1157C60.797 51.6821 45.6023 59.0704 31.801 59.0704Z" fill="#FEDC90"/>
<path d="M24.1303 39.1787C24.1303 42.4054 22.605 44.0921 20.7203 44.0921C18.8393 44.0921 17.314 42.4054 17.314 39.1787C17.314 35.9521 18.8393 34.2654 20.724 34.2654C22.605 34.2654 24.134 35.9521 24.134 39.1787M46.288 39.1787C46.288 42.4054 44.7627 44.0921 42.878 44.0921C40.997 44.0921 39.468 42.4054 39.468 39.1787C39.468 35.9521 40.997 34.2654 42.878 34.2654C44.759 34.2654 46.288 35.9521 46.288 39.1787Z" fill="#633001"/>
</svg>
