<svg width="83" height="91" viewBox="0 0 83 91" fill="none" xmlns="http://www.w3.org/2000/svg">
<path d="M82.3266 34.6653H78.0041V43.3387H73.6531V39.0163H69.3306V34.6653H78.0041V30.3428H69.3306V25.9919H65.0081V43.3387H60.6572V47.6613H21.6694V43.3387H17.3184V25.9919H13.0102V30.3428H4.3225V34.6653H13.0102V39.0163H8.67344V43.3387H4.3225V34.6653H0V47.6613H4.3225V52.0122H13.0102V82.3266H17.3327V86.6775H21.6836V91H60.6714V86.6775H65.0223V82.3266H69.3448V52.0122H78.0183V47.6613H82.3408L82.3266 34.6653ZM65.0081 60.6856H17.3184V56.3347H65.0081V60.6856ZM60.6572 21.6694H65.0081V25.9919H60.6572V21.6694ZM60.6572 4.35094H65.0081V12.9959H60.6572V4.35094ZM56.3347 12.9959H60.6572V21.6694H56.3347V12.9959ZM51.9838 0H60.6572V4.35094H51.9838V0Z" fill="black"/>
<path d="M51.9837 30.3428H56.3347V34.6653H51.9837V30.3428ZM47.6613 4.35094H51.9838L51.9837 12.9959H47.6613V4.35094ZM43.3387 12.9959H47.6613V17.3469H43.3387V12.9959ZM38.9878 43.3387H43.3387V39.0163H47.6613V34.6653H34.6653V39.0163H38.9878V43.3387ZM38.9878 17.3469H43.3387V21.6694H38.9878V17.3469ZM34.6653 12.9959H38.9878V17.3469H34.6653V12.9959ZM30.3144 4.35094H34.6653V12.9959H30.3144V4.35094ZM25.9919 30.3428H30.3144V34.6653H25.9919V30.3428ZM21.6694 0H30.3144V4.35094H21.6694V0ZM21.6694 12.9959H25.9919V21.6694H21.6694V12.9959ZM17.3184 21.6694H21.6694V25.9919H17.3184V21.6694ZM17.3184 4.35094H21.6694V12.9959H17.3184V4.35094Z" fill="black"/>
</svg>
