<svg width="73" height="89" viewBox="0 0 73 89" fill="none" xmlns="http://www.w3.org/2000/svg">
<path d="M67.8069 55.0966H72.0344V76.2897H67.8069V55.0966ZM63.5794 76.2897H67.8069V80.545H63.5794V76.2897ZM63.5794 46.6138H67.8069V55.0966H63.5794V46.6138ZM59.3241 8.48281H63.5794V46.6138H59.3241V8.48281ZM55.0966 80.545H63.5794V84.7725H55.0966V80.545ZM55.0966 4.25531H59.3241V8.48281H55.0966V4.25531ZM46.6138 0H55.0966V4.25531H46.6138V0ZM16.9656 84.7725H55.0966V89H16.9656V84.7725ZM46.6138 50.8691H50.8691V55.0966H46.6138V50.8691ZM46.6138 12.7103H55.0966V38.1588H46.6138V12.7103ZM42.3863 63.5794H46.6138V67.8069H42.3863V63.5794ZM42.3863 4.25531H46.6138V8.48281H42.3863V4.25531ZM38.1309 8.48281H42.3863V42.3862H38.1309V8.48281ZM33.9034 67.8069H42.3863V72.0622H33.9034V67.8069ZM33.9034 63.5794H38.1309V59.3519H42.3863V55.0966H29.6759V59.3519H33.9034V63.5794ZM33.9034 42.3862H38.1309V46.6138H33.9034V42.3862ZM29.6759 8.48281H33.9034V42.3862H29.6759V8.48281ZM25.4206 4.25531H29.6759V8.48281H25.4206V4.25531ZM21.1931 50.8691H25.4206V55.0966H21.1931V50.8691ZM16.9656 0H25.4206V4.25531H16.9656V0ZM16.9656 12.7103H25.4206V38.1588H16.9656V12.7103ZM8.48281 80.545H16.9656V84.7725H8.48281V80.545ZM12.7103 4.25531H16.9656V8.48281H12.7103V4.25531ZM8.48281 8.48281H12.7103V46.6138H8.48281V8.48281ZM4.2275 76.2897H8.48281V80.545H4.2275V76.2897ZM4.2275 46.6138H8.48281V55.0966H4.2275V46.6138ZM0 55.0966H4.2275V76.2897H0V55.0966Z" fill="black"/>
</svg>
